<?xml version="1.0" encoding="UTF-8" standalone="no"?>
<!-- Created with Inkscape (http://www.inkscape.org/) -->

<svg
   xmlns:dc="http://purl.org/dc/elements/1.1/"
   xmlns:cc="http://creativecommons.org/ns#"
   xmlns:rdf="http://www.w3.org/1999/02/22-rdf-syntax-ns#"
   xmlns:svg="http://www.w3.org/2000/svg"
   xmlns="http://www.w3.org/2000/svg"
   xmlns:sodipodi="http://sodipodi.sourceforge.net/DTD/sodipodi-0.dtd"
   xmlns:inkscape="http://www.inkscape.org/namespaces/inkscape"
   width="297mm"
   height="210mm"
   viewBox="0 0 1052.3622 744.09448"
   id="svg2"
   version="1.1"
   inkscape:version="0.91 r13725"
   sodipodi:docname="arcade-cabinet-screen-cutout.svg">
  <defs
     id="defs4" />
  <sodipodi:namedview
     id="base"
     pagecolor="#ffffff"
     bordercolor="#666666"
     borderopacity="1.0"
     inkscape:pageopacity="0.0"
     inkscape:pageshadow="2"
     inkscape:zoom="0.7"
     inkscape:cx="474.15993"
     inkscape:cy="374.64405"
     inkscape:document-units="mm"
     inkscape:current-layer="layer1"
     showgrid="true"
     inkscape:window-width="1366"
     inkscape:window-height="744"
     inkscape:window-x="0"
     inkscape:window-y="24"
     inkscape:window-maximized="1"
     showguides="true"
     inkscape:guide-bbox="true"
     objecttolerance="1"
     gridtolerance="1"
     guidetolerance="1">
    <inkscape:grid
       type="xygrid"
       id="grid3368" />
  </sodipodi:namedview>
  <metadata
     id="metadata7">
    <rdf:RDF>
      <cc:Work
         rdf:about="">
        <dc:format>image/svg+xml</dc:format>
        <dc:type
           rdf:resource="http://purl.org/dc/dcmitype/StillImage" />
        <dc:title />
      </cc:Work>
    </rdf:RDF>
  </metadata>
  <g
     inkscape:label="Layer 1"
     inkscape:groupmode="layer"
     id="layer1"
     transform="translate(0,-308.26772)">
    <path
       style="opacity:1;fill:none;fill-opacity:1;stroke:#ff0000;stroke-width:0.73659897;stroke-linecap:butt;stroke-linejoin:miter;stroke-miterlimit:4;stroke-dasharray:none;stroke-dashoffset:212.59841919;stroke-opacity:1"
       d="m 229.50852,449.81639 c -5.5419,0 -10.0029,3.99038 -10.0029,8.94529 l 0,8.18128 0,5.27312 0,8.76292 0,0.18044 0,372.24665 0,0.1958 0,16.6047 0,5.27311 0,8.18129 c 0,4.95489 4.461,8.94528 10.0029,8.94528 l 11.1538,0 c 5.542,0 10.003,-3.9904 10.003,-8.94528 l 0,-8.18129 0,-5.27311 0,-5.49302 518.0463,0 0,5.62196 0,5.27312 0,8.18129 c 0,4.95489 4.461,8.94528 10.003,8.94528 l 11.1538,0 c 5.54191,0 10.0029,-3.9904 10.0029,-8.94528 l 0,-8.18129 0,-5.27312 0,-16.73364 0,-0.0384 0,-372.20441 0,-0.38008 0,-8.56329 0,-5.2731 0,-8.18129 c 0,-4.9549 -4.461,-8.94528 -10.0029,-8.94528 l -11.1538,0 c -5.542,0 -10.003,3.99038 -10.003,8.94528 l 0,8.18129 0,5.2731 0,8.56329 -518.0463,0 0,-8.76292 0,-5.27312 0,-8.18128 c 0,-4.95491 -4.461,-8.94529 -10.003,-8.94529 z m 5.6016,10.32931 c 3.22719,-7.9e-4 5.84389,2.33787 5.8442,5.2232 -3.1e-4,2.88533 -2.61701,5.22399 -5.8442,5.2232 -3.22633,-3e-4 -5.84169,-2.33864 -5.842,-5.2232 3.1e-4,-2.88456 2.61567,-5.2229 5.842,-5.2232 z m 549.20611,0.19964 c 3.22719,-7.9e-4 5.84389,2.33787 5.8442,5.2232 -3.1e-4,2.88533 -2.61701,5.22399 -5.8442,5.2232 -3.22637,-2.4e-4 -5.8418,-2.3386 -5.84211,-5.2232 3.1e-4,-2.8846 2.61574,-5.22296 5.84211,-5.2232 z m -549.25551,414.6995 c 3.22637,2.5e-4 5.84179,2.3386 5.8421,5.2232 -3e-4,2.8846 -2.61573,5.22296 -5.8421,5.22321 -3.22719,7.9e-4 -5.8439,-2.33787 -5.8442,-5.22321 3.1e-4,-2.88533 2.61701,-5.22399 5.8442,-5.2232 z m 549.2061,-0.118 c 3.22633,2.9e-4 5.8417,2.33863 5.84201,5.2232 -3.1e-4,2.88457 -2.61568,5.22291 -5.84201,5.2232 -3.22719,7.9e-4 -5.84389,-2.33787 -5.8442,-5.2232 3.1e-4,-2.88533 2.61701,-5.22399 5.8442,-5.2232 z"
       id="rect4780"
       inkscape:connector-curvature="0"
       sodipodi:nodetypes="ssccccccccssssccccccssssccccccccssssccccccssscccccccccccccccccccc" />
    <path
       style="opacity:1;fill:none;fill-opacity:1;stroke:#ff0000;stroke-width:1.77165353;stroke-linecap:butt;stroke-linejoin:miter;stroke-miterlimit:4;stroke-dasharray:none;stroke-dashoffset:212.59841919;stroke-opacity:1"
       d="M 155.88477 93.560547 L 155.88477 271.47461 L 138.24023 271.47461 L 138.24023 446.71289 L 155.88477 446.71289 L 155.88477 624.62695 L 864.11523 624.62695 L 864.11523 446.83984 L 881.13672 446.83984 L 881.13672 271.60156 L 864.11523 271.60156 L 864.11523 93.560547 L 155.88477 93.560547 z "
       transform="translate(0,308.26772)"
       id="rect4824" />
    <g
       id="g4174"
       transform="matrix(1.0990629,0,0,0.98253118,-970.51879,423.08708)">
      <circle
         r="4.9385843"
         cy="461.89105"
         cx="260.25241"
         id="path3366"
         style="opacity:1;fill:none;fill-opacity:1;stroke:#008000;stroke-width:0.75275296;stroke-linecap:butt;stroke-linejoin:miter;stroke-miterlimit:4;stroke-dasharray:none;stroke-dashoffset:212.59841919;stroke-opacity:1" />
      <circle
         style="opacity:1;fill:none;fill-opacity:1;stroke:#008000;stroke-width:0.75275296;stroke-linecap:butt;stroke-linejoin:miter;stroke-miterlimit:4;stroke-dasharray:none;stroke-dashoffset:212.59841919;stroke-opacity:1"
         id="circle4168"
         cx="759.81067"
         cy="462.01733"
         r="4.9385843" />
      <circle
         r="4.9385843"
         cy="872.88855"
         cx="759.78833"
         id="circle4170"
         style="opacity:1;fill:none;fill-opacity:1;stroke:#008000;stroke-width:0.75275296;stroke-linecap:butt;stroke-linejoin:miter;stroke-miterlimit:4;stroke-dasharray:none;stroke-dashoffset:212.59841919;stroke-opacity:1" />
      <circle
         style="opacity:1;fill:none;fill-opacity:1;stroke:#008000;stroke-width:0.75275296;stroke-linecap:butt;stroke-linejoin:miter;stroke-miterlimit:4;stroke-dasharray:none;stroke-dashoffset:212.59841919;stroke-opacity:1"
         id="circle4172"
         cx="260.12296"
         cy="872.77686"
         r="4.9385843" />
    </g>
    <text
       xml:space="preserve"
       style="font-style:normal;font-weight:normal;font-size:20px;line-height:125%;font-family:sans-serif;letter-spacing:0px;word-spacing:0px;fill:#000000;fill-opacity:1;stroke:none;stroke-width:1px;stroke-linecap:butt;stroke-linejoin:miter;stroke-opacity:1"
       x="2.0203116"
       y="1048.3217"
       id="text4180"
       sodipodi:linespacing="125%"><tspan
         sodipodi:role="line"
         id="tspan4182"
         x="2.0203116"
         y="1048.3217">Screen</tspan></text>
    <rect
       style="opacity:1;fill:none;fill-opacity:1;stroke:#008000;stroke-width:1.47521651;stroke-linecap:butt;stroke-linejoin:miter;stroke-miterlimit:4;stroke-dasharray:none;stroke-dashoffset:212.59841919;stroke-opacity:1"
       id="rect4184"
       width="579.62714"
       height="377.65863"
       x="-687.883"
       y="282.04688" />
    <rect
       style="opacity:1;fill:none;fill-opacity:1;stroke:#ff0000;stroke-width:0.48310465;stroke-linecap:butt;stroke-linejoin:miter;stroke-miterlimit:4;stroke-dasharray:none;stroke-dashoffset:212.59841919;stroke-opacity:1"
       id="rect4884"
       width="24.320045"
       height="176.68225"
       x="39.598167"
       y="575.63232"
       ry="0.096039586" />
  </g>
</svg>
